<svg fill="#000000" width="24px" height="24px" viewBox="0 0 24 24" xmlns="http://www.w3.org/2000/svg"><path d="M21.92,11.6C19.9,6.91,16.1,4,12,4S4.1,6.91,2.08,11.6a1,1,0,0,0,0,.8C4.1,17.09,7.9,20,12,20s7.9-2.91,9.92-7.6A1,1,0,0,0,21.92,11.6ZM12,18c-3.17,0-6.17-2.29-7.9-6C5.83,8.29,8.83,6,12,6s6.17,2.29,7.9,6C18.17,15.71,15.17,18,12,18Zm0-4.5A1.5,1.5,0,1,1,13.5,12,1.5,1.5,0,0,1,12,13.5Zm0-5A1.5,1.5,0,1,1,13.5,7,1.5,1.5,0,0,1,12,8.5Zm-4,5A1.5,1.5,0,1,1,9.5,12,1.5,1.5,0,0,1,8,13.5Zm8,0A1.5,1.5,0,1,1,17.5,12,1.5,1.5,0,0,1,16,13.5Z"/></svg>